<svg aria-hidden="true" style="position: absolute; width: 0; height: 0; overflow: hidden;" version="1.1" xmlns="http://www.w3.org/2000/svg" xmlns:xlink="http://www.w3.org/1999/xlink">
<defs>
<symbol id="twitter-1" viewBox="0 0 32 32">
<path fill="#3fa4f1" style="fill: var(--color1, #3fa4f1)" d="M0 16c0-8.837 7.163-16 16-16s16 7.163 16 16c0 8.837-7.163 16-16 16s-16-7.163-16-16z"></path>
<path fill="#fff" style="fill: var(--color2, #fff)" d="M15.521 13.005l0.033 0.553-0.559-0.068c-2.037-0.26-3.816-1.141-5.327-2.621l-0.739-0.734-0.19 0.542c-0.403 1.209-0.145 2.486 0.693 3.345 0.448 0.475 0.347 0.542-0.425 0.26-0.269-0.091-0.504-0.159-0.527-0.125-0.078 0.079 0.191 1.107 0.403 1.514 0.291 0.565 0.884 1.119 1.533 1.447l0.549 0.26-0.649 0.011c-0.627 0-0.649 0.011-0.582 0.249 0.224 0.735 1.108 1.514 2.093 1.853l0.693 0.237-0.604 0.361c-0.914 0.525-1.946 0.813-3 0.836-0.503 0.011-0.917 0.057-0.917 0.091 0 0.113 1.365 0.745 2.16 0.994 2.384 0.735 5.215 0.418 7.342-0.836 1.511-0.893 3.021-2.667 3.727-4.384 0.38-0.915 0.761-2.587 0.761-3.389 0-0.52 0.033-0.588 0.66-1.209 0.37-0.361 0.717-0.757 0.784-0.87 0.112-0.215 0.101-0.215-0.47-0.023-0.951 0.339-1.086 0.294-0.615-0.215 0.347-0.361 0.761-1.017 0.761-1.209 0-0.033-0.168 0.023-0.358 0.124-0.201 0.113-0.649 0.283-0.985 0.385l-0.605 0.192-0.549-0.373c-0.302-0.203-0.727-0.429-0.951-0.497-0.571-0.159-1.444-0.136-1.959 0.045-1.399 0.508-2.283 1.819-2.183 3.253v0.001z"></path>
</symbol>
<symbol id="surface1" viewBox="0 0 32 32">
<path d="M2.581 28.376h13.419v-1.032h-13.419c-0.855 0-1.548-0.693-1.548-1.548v-22.71c0-0.855 0.693-1.548 1.548-1.548h22.71c0.855 0 1.548 0.693 1.548 1.548v11.871h1.032v-11.871c-0.002-1.425-1.156-2.579-2.581-2.581h-22.71c-1.424 0.002-2.579 1.156-2.581 2.581v22.71c0.002 1.425 1.156 2.579 2.581 2.581z"></path>
<path d="M2.065 2.57h1.032v1.032h-1.032v-1.032z"></path>
<path d="M4.129 2.57h1.032v1.032h-1.032v-1.032z"></path>
<path d="M6.194 2.57h1.032v1.032h-1.032v-1.032z"></path>
<path d="M2.065 4.634h23.742v1.032h-23.742v-1.032z"></path>
<path d="M7.377 6.85l-1.311 1.311c-1.108-0.734-2.592-0.509-3.433 0.521s-0.765 2.528 0.174 3.468c0.94 0.94 2.439 1.015 3.468 0.174s1.254-2.325 0.521-3.433l1.311-1.311-0.73-0.73zM4.645 11.86c-0.855 0-1.548-0.693-1.548-1.548s0.693-1.548 1.548-1.548c0.23 0.001 0.457 0.054 0.663 0.155l-1.028 1.028 0.73 0.73 1.029-1.028c0.101 0.206 0.154 0.433 0.155 0.663 0 0.855-0.693 1.548-1.548 1.548z"></path>
<path d="M8.774 8.763h8.774v1.032h-8.774v-1.032z"></path>
<path d="M8.774 10.828h3.613v1.032h-3.613v-1.032z"></path>
<path d="M13.419 10.828h7.226v1.032h-7.226v-1.032z"></path>
<path d="M18.581 8.763h5.161v1.032h-5.161v-1.032z"></path>
<path d="M7.377 13.043l-1.311 1.311c-1.108-0.734-2.592-0.509-3.433 0.521s-0.765 2.528 0.174 3.468c0.94 0.94 2.439 1.015 3.468 0.174s1.254-2.325 0.521-3.433l1.311-1.311-0.73-0.73zM4.645 18.053c-0.855 0-1.548-0.693-1.548-1.548s0.693-1.549 1.548-1.549c0.23 0.001 0.457 0.054 0.663 0.155l-1.028 1.028 0.73 0.73 1.029-1.028c0.101 0.207 0.154 0.433 0.155 0.663 0 0.855-0.693 1.548-1.548 1.548z"></path>
<path d="M8.774 14.957h8.774v1.032h-8.774v-1.032z"></path>
<path d="M8.774 17.021h3.613v1.032h-3.613v-1.032z"></path>
<path d="M13.419 17.021h4.129v1.032h-4.129v-1.032z"></path>
<path d="M18.581 14.957h2.064v1.032h-2.064v-1.032z"></path>
<path d="M7.377 19.237l-1.311 1.311c-1.108-0.734-2.592-0.509-3.433 0.521s-0.765 2.528 0.174 3.468c0.94 0.94 2.439 1.015 3.468 0.174s1.254-2.325 0.521-3.433l1.311-1.311-0.73-0.73zM4.645 24.247c-0.855 0-1.548-0.693-1.548-1.548s0.693-1.548 1.548-1.548c0.23 0.001 0.457 0.054 0.663 0.155l-1.028 1.028 0.73 0.73 1.029-1.028c0.101 0.207 0.154 0.433 0.155 0.663 0 0.855-0.693 1.548-1.548 1.548z"></path>
<path d="M8.774 21.15h6.71v1.032h-6.71v-1.032z"></path>
<path d="M8.774 23.215h3.613v1.032h-3.613v-1.032z"></path>
<path d="M13.419 23.215h2.064v1.032h-2.064v-1.032z"></path>
<path d="M24.258 31.473c4.276 0 7.742-3.466 7.742-7.742s-3.466-7.742-7.742-7.742c-4.276 0-7.742 3.466-7.742 7.742 0.005 4.274 3.468 7.737 7.742 7.742zM24.258 17.021c3.705 0 6.71 3.004 6.71 6.71s-3.004 6.71-6.71 6.71c-3.706 0-6.71-3.004-6.71-6.71 0.004-3.704 3.006-6.706 6.71-6.71z"></path>
<path d="M21.11 24.016l-0.924 0.461 1.032 2.065c0.074 0.149 0.215 0.252 0.379 0.279 0.027 0.004 0.053 0.006 0.080 0.007 0.137 0 0.268-0.054 0.365-0.151l6.193-6.194-0.73-0.73-5.687 5.687-0.709-1.424z"></path>
</symbol>
<symbol id="skype-1" viewBox="0 0 32 32">
<path fill="#28a8ea" style="fill: var(--color3, #28a8ea)" d="M9.28 18.56c5.125 0 9.28-4.155 9.28-9.28s-4.155-9.28-9.28-9.28c-5.125 0-9.28 4.155-9.28 9.28s4.155 9.28 9.28 9.28z"></path>
<path fill="#28a8ea" style="fill: var(--color3, #28a8ea)" d="M22.72 32c5.125 0 9.28-4.155 9.28-9.28s-4.155-9.28-9.28-9.28-9.28 4.155-9.28 9.28c0 5.125 4.155 9.28 9.28 9.28z"></path>
<path fill="#28a8ea" style="fill: var(--color3, #28a8ea)" d="M16 31.36c8.483 0 15.36-6.877 15.36-15.36s-6.877-15.36-15.36-15.36c-8.483 0-15.36 6.877-15.36 15.36s6.877 15.36 15.36 15.36z"></path>
<path fill="#fff" style="fill: var(--color2, #fff)" d="M12.017 15.709c-0.601-0.396-1.102-0.925-1.464-1.546-0.35-0.656-0.523-1.392-0.501-2.135-0.027-0.943 0.295-1.863 0.904-2.584 0.632-0.724 1.445-1.267 2.356-1.575 0.991-0.35 2.035-0.525 3.085-0.519 0.687-0.007 1.374 0.046 2.053 0.157 0.485 0.075 0.962 0.198 1.423 0.367 0.423 0.143 0.805 0.388 1.113 0.711 0.227 0.267 0.35 0.607 0.345 0.957 0.008 0.182-0.020 0.364-0.082 0.535s-0.157 0.328-0.28 0.463c-0.116 0.124-0.257 0.222-0.414 0.287s-0.326 0.097-0.495 0.092c-0.234-0.002-0.465-0.054-0.677-0.152-0.522-0.233-1.060-0.43-1.61-0.589-0.506-0.133-1.028-0.198-1.551-0.193-0.682-0.025-1.356 0.147-1.942 0.496-0.247 0.15-0.45 0.364-0.586 0.62s-0.202 0.543-0.189 0.832c-0.004 0.38 0.14 0.746 0.402 1.021 0.311 0.323 0.679 0.586 1.085 0.776 0.455 0.225 1.133 0.525 2.035 0.898 0.1 0.031 0.198 0.071 0.292 0.117 0.88 0.348 1.724 0.782 2.52 1.295 0.628 0.41 1.158 0.954 1.551 1.593 0.387 0.671 0.581 1.436 0.56 2.21 0.033 0.949-0.239 1.883-0.776 2.666-0.546 0.741-1.302 1.302-2.169 1.609-1.045 0.373-2.15 0.553-3.26 0.531-1.525 0.053-3.043-0.233-4.444-0.84-0.359-0.159-0.673-0.404-0.916-0.712-0.201-0.282-0.306-0.622-0.297-0.968-0.010-0.183 0.020-0.366 0.087-0.536s0.171-0.324 0.304-0.45c0.279-0.243 0.64-0.371 1.009-0.355 0.411 0.006 0.815 0.11 1.178 0.303 0.451 0.225 0.807 0.395 1.067 0.507 0.298 0.125 0.607 0.222 0.922 0.291 0.389 0.085 0.786 0.127 1.184 0.123 0.704 0.050 1.404-0.137 1.989-0.531 0.219-0.172 0.394-0.393 0.511-0.645s0.171-0.529 0.16-0.807c0.001-0.395-0.149-0.775-0.42-1.062-0.357-0.368-0.775-0.672-1.236-0.898-0.545-0.288-1.311-0.638-2.298-1.050-0.883-0.352-1.729-0.791-2.525-1.312z"></path>
<path fill="#000" style="fill: var(--color4, #000)" opacity="0.1" d="M12.179 0.467c-0.406-0.136-0.821-0.243-1.242-0.32-2.527 0.811-4.824 2.213-6.701 4.090s-3.278 4.174-4.089 6.701c0.077 0.421 0.184 0.836 0.32 1.242 0.113 0.367 0.257 0.725 0.429 1.069 0.556-3.072 2.037-5.901 4.244-8.108s5.036-3.688 8.108-4.244c-0.344-0.172-0.701-0.315-1.069-0.429v-0.001z"></path>
<path fill="#000" style="fill: var(--color4, #000)" opacity="0.1" d="M12.18 0.467c-2.835 0.699-5.425 2.16-7.489 4.224s-3.525 4.654-4.224 7.489c0.113 0.367 0.257 0.725 0.429 1.069 0.556-3.072 2.037-5.901 4.244-8.108s5.037-3.688 8.108-4.244c-0.344-0.172-0.701-0.315-1.068-0.429v-0.001z"></path>
<path fill="#000" style="fill: var(--color4, #000)" opacity="0.1" d="M31.534 19.821c-0.114-0.367-0.257-0.725-0.429-1.069-0.556 3.072-2.037 5.901-4.244 8.108s-5.036 3.688-8.108 4.244c0.344 0.172 0.701 0.315 1.069 0.429 0.406 0.136 0.821 0.243 1.241 0.32 2.527-0.811 4.825-2.213 6.701-4.089s3.279-4.174 4.090-6.701c-0.077-0.421-0.184-0.836-0.32-1.242z"></path>
<path fill="#000" style="fill: var(--color4, #000)" opacity="0.1" d="M31.104 18.752c-0.556 3.072-2.037 5.901-4.244 8.108s-5.036 3.688-8.108 4.244c0.344 0.172 0.701 0.315 1.069 0.429 2.834-0.699 5.424-2.16 7.488-4.224s3.525-4.654 4.225-7.488c-0.113-0.367-0.257-0.725-0.429-1.069h-0.001z"></path>
</symbol>
<symbol id="linkedin-1" viewBox="0 0 32 32">
<path fill="#0077b5" style="fill: var(--color5, #0077b5)" d="M0 16c0-8.837 7.163-16 16-16s16 7.163 16 16c0 8.837-7.163 16-16 16s-16-7.163-16-16z"></path>
<path fill="#fff" style="fill: var(--color2, #fff)" d="M11.546 9.882c0 1.046-0.787 1.883-2.052 1.883h-0.023c-1.217 0-2.005-0.837-2.005-1.883 0-1.069 0.811-1.882 2.051-1.882s2.005 0.813 2.028 1.882zM11.307 13.252v10.895h-3.627v-10.895h3.627zM24.383 24.147v-6.247c0-3.347-1.789-4.904-4.175-4.904-1.925 0-2.787 1.057-3.268 1.799v-1.543h-3.627c0.048 1.023 0 10.895 0 10.895h3.627v-6.085c0-0.325 0.023-0.65 0.119-0.883 0.262-0.651 0.859-1.324 1.86-1.324 1.313 0 1.838 0.999 1.838 2.463v5.829h3.625z"></path>
</symbol>
<symbol id="Frame-1" viewBox="0 0 32 32">
<path fill="#fff" style="fill: var(--color2, #fff)" d="M20 29.333c-0.503 0-0.967-0.284-1.193-0.737l-3.957-7.915c-0.217-0.435-0.18-0.955 0.096-1.356l6.388-8.659-8.66 6.387c-0.401 0.277-0.921 0.312-1.356 0.096l-7.913-3.956c-0.475-0.239-0.764-0.736-0.735-1.267 0.028-0.531 0.371-0.995 0.869-1.177l25.333-9.333c0.487-0.177 1.035-0.061 1.404 0.308 0.368 0.367 0.488 0.916 0.308 1.404l-9.333 25.333c-0.184 0.499-0.647 0.841-1.177 0.869-0.024 0.001-0.049 0.003-0.073 0.003z"></path>
</symbol>
<symbol id="ic24-play-circle-1" viewBox="0 0 32 32">
<path fill="#fff" style="fill: var(--color2, #fff)" d="M16 2.667c7.364 0 13.333 5.969 13.333 13.333s-5.969 13.333-13.333 13.333c-7.364 0-13.333-5.969-13.333-13.333s5.969-13.333 13.333-13.333zM16 5.333c-2.829 0-5.542 1.124-7.542 3.124s-3.124 4.713-3.124 7.542 1.124 5.542 3.124 7.543c2 2 4.713 3.124 7.542 3.124s5.542-1.124 7.543-3.124c2-2 3.124-4.713 3.124-7.543s-1.124-5.542-3.124-7.542c-2-2-4.713-3.124-7.543-3.124zM14.005 9.515l8 5.333c0.189 0.11 0.347 0.264 0.462 0.45s0.183 0.396 0.197 0.614c0.015 0.218-0.025 0.436-0.114 0.635s-0.226 0.373-0.399 0.507l-8.147 5.432c-0.203 0.118-0.433 0.181-0.667 0.182s-0.465-0.060-0.669-0.177c-0.203-0.117-0.372-0.285-0.49-0.488s-0.179-0.434-0.179-0.668v-10.667c-0-0.235 0.062-0.465 0.179-0.668s0.287-0.371 0.49-0.488c0.203-0.117 0.434-0.178 0.669-0.177s0.465 0.063 0.667 0.182z"></path>
</symbol>
<symbol id="Frame" viewBox="0 0 32 32">
<path fill="#1877f2" style="fill: var(--color6, #1877f2)" d="M32 16c0-8.837-7.163-16-16-16s-16 7.163-16 16c0 7.987 5.85 14.607 13.5 15.807v-11.183h-4.063v-4.624h4.063v-3.525c0-4.009 2.387-6.225 6.044-6.225 1.75 0 3.581 0.313 3.581 0.313v3.937h-2.019c-1.987 0-2.606 1.235-2.606 2.5v3h4.437l-0.709 4.625h-3.728v11.181c7.65-1.199 13.5-7.819 13.5-15.806z"></path>
<path fill="#fff" style="fill: var(--color2, #fff)" d="M22.228 20.625l0.709-4.625h-4.437v-3c0-1.265 0.619-2.5 2.607-2.5h2.018v-3.937c0 0-1.831-0.313-3.581-0.313-3.657 0-6.044 2.215-6.044 6.225v3.525h-4.063v4.625h4.063v11.181c0.815 0.129 1.65 0.194 2.5 0.194s1.685-0.065 2.5-0.193v-11.183l3.728 0.001z"></path>
</symbol>
<symbol id="fi-rr-arrow-small-right-1" viewBox="0 0 32 32">
<path fill="#fff" style="fill: var(--color2, #fff)" d="M17.495 8.391c-0.25 0.25-0.39 0.589-0.39 0.943s0.14 0.693 0.39 0.943l4.389 4.391-13.884 0.009c-0.354 0-0.693 0.141-0.943 0.391s-0.391 0.589-0.391 0.943 0.14 0.693 0.391 0.943c0.25 0.25 0.589 0.391 0.943 0.391l13.885-0.009-4.391 4.391c-0.127 0.123-0.229 0.27-0.299 0.433s-0.107 0.338-0.108 0.515c-0.001 0.177 0.032 0.353 0.099 0.517s0.166 0.313 0.291 0.438c0.125 0.125 0.274 0.224 0.438 0.291s0.339 0.101 0.517 0.099c0.177-0.002 0.352-0.038 0.515-0.108s0.31-0.171 0.433-0.299l4.781-4.78c0.371-0.371 0.666-0.812 0.867-1.298s0.305-1.006 0.305-1.531-0.104-1.045-0.305-1.531c-0.201-0.485-0.496-0.926-0.867-1.298l-4.781-4.781c-0.25-0.25-0.589-0.39-0.943-0.39s-0.693 0.14-0.943 0.39z"></path>
</symbol>
<symbol id="checklist-2" viewBox="0 0 32 32">
<path fill="#fff" style="fill: var(--color2, #fff)" d="M2.581 28.376h13.419v-1.032h-13.419c-0.855 0-1.548-0.693-1.548-1.548v-22.71c0-0.855 0.693-1.548 1.548-1.548h22.71c0.855 0 1.548 0.693 1.548 1.548v11.871h1.032v-11.871c-0.002-1.425-1.156-2.579-2.581-2.581h-22.71c-1.424 0.002-2.579 1.156-2.581 2.581v22.71c0.002 1.425 1.156 2.579 2.581 2.581z"></path>
<path fill="#fff" style="fill: var(--color2, #fff)" d="M2.065 2.57h1.032v1.032h-1.032v-1.032z"></path>
<path fill="#fff" style="fill: var(--color2, #fff)" d="M4.129 2.57h1.032v1.032h-1.032v-1.032z"></path>
<path fill="#fff" style="fill: var(--color2, #fff)" d="M6.194 2.57h1.032v1.032h-1.032v-1.032z"></path>
<path fill="#fff" style="fill: var(--color2, #fff)" d="M2.065 4.634h23.742v1.032h-23.742v-1.032z"></path>
<path fill="#fff" style="fill: var(--color2, #fff)" d="M7.377 6.85l-1.311 1.311c-1.108-0.734-2.592-0.509-3.433 0.521s-0.765 2.528 0.174 3.468c0.94 0.94 2.439 1.015 3.468 0.174s1.254-2.325 0.521-3.433l1.311-1.311-0.73-0.73zM4.645 11.86c-0.855 0-1.548-0.693-1.548-1.548s0.693-1.548 1.548-1.548c0.23 0.001 0.457 0.054 0.663 0.155l-1.028 1.028 0.73 0.73 1.029-1.028c0.101 0.206 0.154 0.433 0.155 0.663 0 0.855-0.693 1.548-1.548 1.548z"></path>
<path fill="#fff" style="fill: var(--color2, #fff)" d="M8.774 8.763h8.774v1.032h-8.774v-1.032z"></path>
<path fill="#fff" style="fill: var(--color2, #fff)" d="M8.774 10.828h3.613v1.032h-3.613v-1.032z"></path>
<path fill="#fff" style="fill: var(--color2, #fff)" d="M13.419 10.828h7.226v1.032h-7.226v-1.032z"></path>
<path fill="#fff" style="fill: var(--color2, #fff)" d="M18.581 8.763h5.161v1.032h-5.161v-1.032z"></path>
<path fill="#fff" style="fill: var(--color2, #fff)" d="M7.377 13.043l-1.311 1.311c-1.108-0.734-2.592-0.509-3.433 0.521s-0.765 2.528 0.174 3.468c0.94 0.94 2.439 1.015 3.468 0.174s1.254-2.325 0.521-3.433l1.311-1.311-0.73-0.73zM4.645 18.053c-0.855 0-1.548-0.693-1.548-1.548s0.693-1.549 1.548-1.549c0.23 0.001 0.457 0.054 0.663 0.155l-1.028 1.028 0.73 0.73 1.029-1.028c0.101 0.207 0.154 0.433 0.155 0.663 0 0.855-0.693 1.548-1.548 1.548z"></path>
<path fill="#fff" style="fill: var(--color2, #fff)" d="M8.774 14.957h8.774v1.032h-8.774v-1.032z"></path>
<path fill="#fff" style="fill: var(--color2, #fff)" d="M8.774 17.021h3.613v1.032h-3.613v-1.032z"></path>
<path fill="#fff" style="fill: var(--color2, #fff)" d="M13.419 17.021h4.129v1.032h-4.129v-1.032z"></path>
<path fill="#fff" style="fill: var(--color2, #fff)" d="M18.581 14.957h2.064v1.032h-2.064v-1.032z"></path>
<path fill="#fff" style="fill: var(--color2, #fff)" d="M7.377 19.237l-1.311 1.311c-1.108-0.734-2.592-0.509-3.433 0.521s-0.765 2.528 0.174 3.468c0.94 0.94 2.439 1.015 3.468 0.174s1.254-2.325 0.521-3.433l1.311-1.311-0.73-0.73zM4.645 24.247c-0.855 0-1.548-0.693-1.548-1.548s0.693-1.548 1.548-1.548c0.23 0.001 0.457 0.054 0.663 0.155l-1.028 1.028 0.73 0.73 1.029-1.028c0.101 0.207 0.154 0.433 0.155 0.663 0 0.855-0.693 1.548-1.548 1.548z"></path>
<path fill="#fff" style="fill: var(--color2, #fff)" d="M8.774 21.15h6.71v1.032h-6.71v-1.032z"></path>
<path fill="#fff" style="fill: var(--color2, #fff)" d="M8.774 23.215h3.613v1.032h-3.613v-1.032z"></path>
<path fill="#fff" style="fill: var(--color2, #fff)" d="M13.419 23.215h2.064v1.032h-2.064v-1.032z"></path>
<path fill="#fff" style="fill: var(--color2, #fff)" d="M24.258 31.473c4.276 0 7.742-3.466 7.742-7.742s-3.466-7.742-7.742-7.742c-4.276 0-7.742 3.466-7.742 7.742 0.005 4.274 3.468 7.737 7.742 7.742zM24.258 17.021c3.705 0 6.71 3.004 6.71 6.71s-3.004 6.71-6.71 6.71c-3.706 0-6.71-3.004-6.71-6.71 0.004-3.704 3.006-6.706 6.71-6.71z"></path>
<path fill="#fff" style="fill: var(--color2, #fff)" d="M21.11 24.016l-0.924 0.461 1.032 2.065c0.074 0.149 0.215 0.252 0.379 0.279 0.027 0.004 0.053 0.006 0.080 0.007 0.137 0 0.268-0.054 0.365-0.151l6.193-6.194-0.73-0.73-5.687 5.687-0.709-1.424z"></path>
</symbol>
<symbol id="bitcoin-1" viewBox="0 0 32 32">
<path fill="#fff" style="fill: var(--color2, #fff)" d="M16 25.43c-1.865 0-3.688-0.553-5.239-1.589s-2.76-2.509-3.473-4.232-0.901-3.619-0.537-5.449c0.364-1.829 1.262-3.51 2.581-4.829s2.999-2.217 4.829-2.581 3.726-0.177 5.449 0.537c1.723 0.714 3.196 1.922 4.232 3.473s1.589 3.374 1.589 5.239c-0.003 2.5-0.997 4.897-2.765 6.665s-4.165 2.762-6.665 2.765zM16 7.434c-1.694 0-3.35 0.502-4.759 1.444s-2.507 2.279-3.155 3.844-0.818 3.287-0.487 4.949c0.331 1.662 1.146 3.188 2.344 4.386s2.724 2.014 4.386 2.344c1.662 0.331 3.384 0.161 4.949-0.487s2.903-1.746 3.844-3.155c0.941-1.409 1.444-3.065 1.444-4.759-0.003-2.271-0.906-4.448-2.512-6.054s-3.783-2.509-6.054-2.512z"></path>
<path fill="#fff" style="fill: var(--color2, #fff)" d="M16 23.196c-1.423 0-2.814-0.422-3.998-1.213s-2.106-1.915-2.65-3.229c-0.545-1.315-0.687-2.762-0.409-4.157s0.963-2.678 1.969-3.684c1.006-1.006 2.289-1.692 3.684-1.969s2.843-0.135 4.158 0.41c1.315 0.545 2.439 1.467 3.229 2.65s1.213 2.575 1.213 3.998c-0.002 1.908-0.761 3.737-2.11 5.086s-3.178 2.108-5.086 2.11zM16 9.669c-1.252 0-2.476 0.371-3.517 1.067s-1.852 1.684-2.332 2.841-0.605 2.43-0.36 3.658c0.244 1.228 0.847 2.356 1.733 3.242s2.013 1.488 3.241 1.733c1.228 0.244 2.501 0.119 3.658-0.36s2.146-1.291 2.841-2.332c0.696-1.041 1.067-2.265 1.067-3.517-0.002-1.678-0.67-3.288-1.856-4.474s-2.796-1.854-4.474-1.856z"></path>
<path fill="#fff" style="fill: var(--color2, #fff)" d="M16.72 16.138h-2.199c-0.115 0-0.225-0.046-0.306-0.127s-0.127-0.191-0.127-0.306v-3.535c0-0.115 0.046-0.225 0.127-0.306s0.191-0.127 0.306-0.127h2.199c0.291-0.004 0.581 0.050 0.851 0.158s0.517 0.27 0.724 0.475c0.208 0.205 0.372 0.449 0.485 0.718s0.17 0.558 0.17 0.849c0 0.291-0.058 0.58-0.17 0.849s-0.277 0.513-0.485 0.718c-0.208 0.205-0.454 0.366-0.724 0.475s-0.56 0.163-0.851 0.159zM14.953 15.274h1.767c0.177 0.003 0.354-0.029 0.518-0.095s0.315-0.164 0.441-0.288c0.127-0.124 0.227-0.273 0.296-0.436s0.104-0.339 0.104-0.517c0-0.177-0.035-0.353-0.104-0.517s-0.169-0.312-0.296-0.436c-0.127-0.124-0.277-0.222-0.441-0.288s-0.341-0.098-0.518-0.095h-1.767v2.67z"></path>
<path fill="#fff" style="fill: var(--color2, #fff)" d="M17.282 19.676h-2.761c-0.115 0-0.225-0.046-0.306-0.127s-0.127-0.191-0.127-0.306v-3.537c0-0.115 0.046-0.225 0.127-0.306s0.191-0.127 0.306-0.127h2.761c0.584 0 1.143 0.232 1.556 0.644s0.644 0.972 0.644 1.556-0.232 1.143-0.644 1.556c-0.413 0.413-0.972 0.644-1.556 0.644v0.002zM14.953 18.811h2.329c0.354 0 0.694-0.141 0.944-0.391s0.391-0.59 0.391-0.944c0-0.354-0.141-0.694-0.391-0.944s-0.59-0.391-0.944-0.391h-2.329v2.671z"></path>
<path fill="#fff" style="fill: var(--color2, #fff)" d="M14.521 12.603h-0.631c-0.115 0-0.225-0.046-0.306-0.127s-0.127-0.191-0.127-0.306c0-0.115 0.046-0.225 0.127-0.306s0.191-0.127 0.306-0.127h0.631c0.115 0 0.225 0.046 0.306 0.127s0.127 0.191 0.127 0.306-0.046 0.225-0.127 0.306c-0.081 0.081-0.191 0.127-0.306 0.127z"></path>
<path fill="#fff" style="fill: var(--color2, #fff)" d="M14.876 12.603c-0.115 0-0.225-0.046-0.306-0.127s-0.127-0.191-0.127-0.306v-0.796c0-0.115 0.046-0.225 0.127-0.306s0.191-0.127 0.306-0.127c0.115 0 0.225 0.046 0.306 0.127s0.127 0.191 0.127 0.306v0.796c0 0.115-0.046 0.225-0.127 0.306s-0.191 0.127-0.306 0.127z"></path>
<path fill="#fff" style="fill: var(--color2, #fff)" d="M16.253 12.603c-0.115 0-0.225-0.046-0.306-0.127s-0.127-0.191-0.127-0.306v-0.796c0-0.115 0.046-0.225 0.127-0.306s0.191-0.127 0.306-0.127c0.115 0 0.225 0.046 0.306 0.127s0.127 0.191 0.127 0.306v0.796c0 0.115-0.046 0.225-0.127 0.306s-0.191 0.127-0.306 0.127z"></path>
<path fill="#fff" style="fill: var(--color2, #fff)" d="M14.876 20.469c-0.115 0-0.225-0.046-0.306-0.127s-0.127-0.191-0.127-0.306v-0.794c0-0.115 0.046-0.225 0.127-0.306s0.191-0.127 0.306-0.127c0.115 0 0.225 0.046 0.306 0.127s0.127 0.191 0.127 0.306v0.795c-0 0.114-0.046 0.224-0.127 0.305s-0.191 0.126-0.305 0.126z"></path>
<path fill="#fff" style="fill: var(--color2, #fff)" d="M16.253 20.469c-0.115 0-0.225-0.046-0.306-0.127s-0.127-0.191-0.127-0.306v-0.794c0-0.115 0.046-0.225 0.127-0.306s0.191-0.127 0.306-0.127c0.115 0 0.225 0.046 0.306 0.127s0.127 0.191 0.127 0.306v0.795c-0 0.114-0.046 0.224-0.127 0.305s-0.191 0.126-0.305 0.126z"></path>
<path fill="#fff" style="fill: var(--color2, #fff)" d="M14.521 19.676h-0.631c-0.115 0-0.225-0.046-0.306-0.127s-0.127-0.191-0.127-0.306 0.046-0.225 0.127-0.306c0.081-0.081 0.191-0.127 0.306-0.127h0.631c0.115 0 0.225 0.046 0.306 0.127s0.127 0.191 0.127 0.306-0.046 0.225-0.127 0.306c-0.081 0.081-0.191 0.127-0.306 0.127z"></path>
<path fill="#fff" style="fill: var(--color2, #fff)" d="M16 7.434c-0.115 0-0.225-0.046-0.306-0.127s-0.127-0.191-0.127-0.306v-2.999c0-0.115 0.046-0.225 0.127-0.306s0.191-0.127 0.306-0.127 0.225 0.046 0.306 0.127c0.081 0.081 0.127 0.191 0.127 0.306v2.999c0 0.115-0.046 0.225-0.127 0.306s-0.191 0.127-0.306 0.127z"></path>
<path fill="#fff" style="fill: var(--color2, #fff)" d="M16 4.435c-0.353 0-0.698-0.105-0.992-0.301s-0.522-0.475-0.657-0.801c-0.135-0.326-0.17-0.685-0.102-1.031s0.239-0.664 0.489-0.914c0.25-0.25 0.568-0.42 0.914-0.489s0.705-0.034 1.031 0.102c0.326 0.135 0.605 0.364 0.801 0.657s0.301 0.639 0.301 0.992c-0.001 0.473-0.189 0.927-0.523 1.262s-0.788 0.523-1.262 0.523zM16 1.73c-0.182 0-0.36 0.054-0.511 0.155s-0.269 0.245-0.339 0.413c-0.070 0.168-0.088 0.353-0.052 0.532s0.123 0.342 0.252 0.471c0.129 0.129 0.293 0.216 0.471 0.252s0.364 0.017 0.532-0.052 0.312-0.188 0.413-0.339c0.101-0.151 0.155-0.329 0.155-0.511-0-0.244-0.097-0.478-0.27-0.65s-0.406-0.27-0.65-0.27z"></path>
<path fill="#fff" style="fill: var(--color2, #fff)" d="M16 28.43c-0.115 0-0.225-0.046-0.306-0.127s-0.127-0.191-0.127-0.306v-2.999c0-0.115 0.046-0.225 0.127-0.306s0.191-0.127 0.306-0.127 0.225 0.046 0.306 0.127c0.081 0.081 0.127 0.191 0.127 0.306v2.999c0 0.115-0.046 0.225-0.127 0.306s-0.191 0.127-0.306 0.127z"></path>
<path fill="#fff" style="fill: var(--color2, #fff)" d="M16 31.135c-0.353 0-0.698-0.105-0.992-0.301s-0.522-0.475-0.657-0.801-0.17-0.685-0.102-1.031c0.069-0.346 0.239-0.664 0.489-0.914s0.568-0.42 0.914-0.489c0.346-0.069 0.705-0.034 1.031 0.102s0.605 0.364 0.801 0.657c0.196 0.294 0.301 0.639 0.301 0.992-0.001 0.473-0.189 0.927-0.523 1.262s-0.788 0.523-1.262 0.523zM16 28.43c-0.182 0-0.36 0.054-0.511 0.155s-0.269 0.245-0.339 0.413c-0.070 0.168-0.088 0.353-0.052 0.532s0.123 0.342 0.252 0.471c0.129 0.129 0.293 0.216 0.471 0.252s0.364 0.017 0.532-0.052 0.312-0.188 0.413-0.339c0.101-0.151 0.155-0.329 0.155-0.511-0-0.244-0.097-0.478-0.27-0.65s-0.406-0.27-0.65-0.27z"></path>
<path fill="#fff" style="fill: var(--color2, #fff)" d="M27.997 16.432h-2.999c-0.115 0-0.225-0.046-0.306-0.127s-0.127-0.191-0.127-0.306c0-0.115 0.046-0.225 0.127-0.306s0.191-0.127 0.306-0.127h2.999c0.115 0 0.225 0.046 0.306 0.127s0.127 0.191 0.127 0.306c0 0.115-0.046 0.225-0.127 0.306s-0.191 0.127-0.306 0.127z"></path>
<path fill="#fff" style="fill: var(--color2, #fff)" d="M29.35 17.785c-0.353 0-0.698-0.105-0.992-0.301s-0.522-0.475-0.657-0.801c-0.135-0.326-0.171-0.685-0.102-1.031s0.239-0.664 0.489-0.914c0.25-0.25 0.568-0.42 0.914-0.489s0.705-0.034 1.031 0.102c0.326 0.135 0.605 0.364 0.801 0.658s0.301 0.639 0.301 0.992c-0.001 0.473-0.189 0.927-0.523 1.262s-0.788 0.523-1.262 0.523zM29.35 15.080c-0.182 0-0.36 0.054-0.511 0.155s-0.269 0.245-0.339 0.413c-0.070 0.168-0.088 0.353-0.052 0.532s0.123 0.342 0.252 0.471c0.129 0.129 0.293 0.216 0.471 0.252s0.363 0.017 0.532-0.052c0.168-0.070 0.312-0.188 0.413-0.339s0.155-0.329 0.155-0.511c-0-0.244-0.097-0.478-0.27-0.65s-0.406-0.27-0.65-0.27z"></path>
<path fill="#fff" style="fill: var(--color2, #fff)" d="M7.002 16.432h-2.999c-0.115 0-0.225-0.046-0.306-0.127s-0.127-0.191-0.127-0.306c0-0.115 0.046-0.225 0.127-0.306s0.191-0.127 0.306-0.127h2.999c0.115 0 0.225 0.046 0.306 0.127s0.127 0.191 0.127 0.306c0 0.115-0.046 0.225-0.127 0.306s-0.191 0.127-0.306 0.127z"></path>
<path fill="#fff" style="fill: var(--color2, #fff)" d="M2.65 17.785c-0.353 0-0.698-0.105-0.992-0.301s-0.522-0.475-0.657-0.801-0.17-0.685-0.102-1.031c0.069-0.346 0.239-0.664 0.489-0.914s0.568-0.42 0.914-0.489 0.705-0.034 1.031 0.102c0.326 0.135 0.605 0.364 0.801 0.658s0.301 0.639 0.301 0.992c-0.001 0.473-0.189 0.927-0.523 1.262s-0.788 0.523-1.262 0.523zM2.65 15.080c-0.182 0-0.36 0.054-0.511 0.155s-0.269 0.245-0.339 0.413c-0.070 0.168-0.088 0.353-0.052 0.532s0.123 0.342 0.252 0.471c0.129 0.129 0.293 0.216 0.471 0.252s0.364 0.017 0.532-0.052c0.168-0.070 0.312-0.188 0.413-0.339s0.155-0.329 0.155-0.511c-0-0.244-0.097-0.478-0.27-0.65s-0.406-0.27-0.65-0.27z"></path>
<path fill="#fff" style="fill: var(--color2, #fff)" d="M8.519 26.434h-3.453c-0.115 0-0.225-0.046-0.306-0.127s-0.127-0.191-0.127-0.306c0-0.115 0.046-0.225 0.127-0.306s0.191-0.127 0.306-0.127h3.214l1.73-2.774c0.061-0.098 0.158-0.167 0.269-0.193s0.229-0.007 0.327 0.054c0.097 0.061 0.167 0.158 0.193 0.269s0.007 0.229-0.054 0.327l-1.856 2.978c-0.039 0.063-0.094 0.115-0.159 0.15s-0.138 0.054-0.212 0.053z"></path>
<path fill="#fff" style="fill: var(--color2, #fff)" d="M3.714 27.786c-0.353-0-0.698-0.105-0.992-0.301s-0.522-0.475-0.657-0.801c-0.135-0.326-0.17-0.685-0.101-1.031s0.239-0.664 0.489-0.914c0.25-0.25 0.568-0.42 0.914-0.488s0.705-0.033 1.031 0.102c0.326 0.135 0.605 0.364 0.801 0.657s0.301 0.639 0.301 0.992c-0 0.473-0.189 0.927-0.524 1.262s-0.789 0.523-1.262 0.523zM3.714 25.081c-0.182 0-0.36 0.054-0.511 0.155s-0.269 0.245-0.339 0.413c-0.070 0.168-0.088 0.353-0.052 0.532s0.123 0.342 0.252 0.471c0.129 0.129 0.293 0.216 0.471 0.252s0.364 0.017 0.532-0.052 0.312-0.188 0.413-0.339c0.101-0.151 0.155-0.329 0.155-0.511-0-0.244-0.097-0.478-0.27-0.651s-0.407-0.27-0.651-0.27z"></path>
<path fill="#fff" style="fill: var(--color2, #fff)" d="M10.378 9.409c-0.074 0-0.146-0.019-0.21-0.054s-0.118-0.087-0.157-0.149l-1.73-2.774h-3.215c-0.115 0-0.225-0.046-0.306-0.127s-0.127-0.191-0.127-0.306c0-0.115 0.046-0.225 0.127-0.306s0.191-0.127 0.306-0.127h3.453c0.073-0 0.146 0.019 0.21 0.054s0.118 0.087 0.157 0.149l1.856 2.978c0.041 0.065 0.063 0.14 0.065 0.217s-0.016 0.153-0.053 0.22-0.091 0.124-0.157 0.163c-0.066 0.039-0.141 0.060-0.218 0.061z"></path>
<path fill="#fff" style="fill: var(--color2, #fff)" d="M3.714 7.784c-0.353-0-0.698-0.105-0.992-0.301s-0.522-0.475-0.657-0.801c-0.135-0.326-0.17-0.685-0.101-1.031s0.239-0.664 0.489-0.914c0.25-0.25 0.568-0.42 0.914-0.488s0.705-0.033 1.031 0.102c0.326 0.135 0.605 0.364 0.801 0.657s0.301 0.639 0.301 0.992c-0 0.473-0.189 0.927-0.524 1.262s-0.789 0.523-1.262 0.523zM3.714 5.079c-0.182 0-0.36 0.054-0.511 0.155s-0.269 0.245-0.339 0.413c-0.070 0.168-0.088 0.353-0.052 0.532s0.123 0.342 0.252 0.471c0.129 0.129 0.293 0.216 0.471 0.252s0.364 0.017 0.532-0.052c0.168-0.070 0.312-0.188 0.413-0.339s0.155-0.329 0.155-0.511c-0-0.244-0.097-0.478-0.27-0.651s-0.407-0.269-0.651-0.27z"></path>
<path fill="#fff" style="fill: var(--color2, #fff)" d="M26.933 26.434h-3.453c-0.073 0-0.146-0.019-0.21-0.054s-0.118-0.087-0.157-0.149l-1.858-2.978c-0.061-0.097-0.080-0.215-0.054-0.327s0.095-0.209 0.193-0.269c0.097-0.061 0.215-0.080 0.327-0.054s0.209 0.095 0.269 0.193l1.73 2.775h3.214c0.115 0 0.225 0.046 0.306 0.127s0.127 0.191 0.127 0.306-0.046 0.225-0.127 0.306c-0.081 0.081-0.191 0.127-0.306 0.127h-0.002z"></path>
<path fill="#fff" style="fill: var(--color2, #fff)" d="M28.286 27.786c-0.353 0-0.698-0.105-0.992-0.301s-0.522-0.475-0.657-0.801c-0.135-0.326-0.17-0.685-0.102-1.031s0.239-0.664 0.489-0.914c0.25-0.25 0.568-0.42 0.914-0.489s0.705-0.034 1.031 0.102c0.326 0.135 0.605 0.364 0.801 0.657s0.301 0.639 0.301 0.992c-0.001 0.473-0.189 0.927-0.523 1.262s-0.788 0.523-1.262 0.523zM28.286 25.081c-0.182 0-0.36 0.054-0.511 0.155s-0.269 0.245-0.339 0.413-0.088 0.353-0.052 0.532c0.035 0.178 0.123 0.342 0.252 0.471s0.293 0.216 0.471 0.252c0.178 0.035 0.363 0.017 0.532-0.052s0.312-0.188 0.413-0.339c0.101-0.151 0.155-0.329 0.155-0.511-0-0.244-0.097-0.478-0.27-0.65s-0.406-0.27-0.65-0.27z"></path>
<path fill="#fff" style="fill: var(--color2, #fff)" d="M21.622 9.409c-0.077-0-0.153-0.021-0.219-0.060s-0.121-0.095-0.159-0.163c-0.037-0.068-0.056-0.144-0.054-0.221s0.024-0.152 0.065-0.218l1.856-2.978c0.039-0.062 0.093-0.114 0.157-0.149s0.136-0.054 0.21-0.054h3.454c0.115 0 0.225 0.046 0.306 0.127s0.127 0.191 0.127 0.306-0.046 0.225-0.127 0.306c-0.081 0.081-0.191 0.127-0.306 0.127h-3.213l-1.73 2.774c-0.039 0.062-0.093 0.114-0.158 0.15s-0.137 0.054-0.21 0.054z"></path>
<path fill="#fff" style="fill: var(--color2, #fff)" d="M28.286 7.784c-0.353 0-0.698-0.105-0.992-0.301s-0.522-0.475-0.657-0.801c-0.135-0.326-0.17-0.685-0.102-1.031s0.239-0.664 0.489-0.914c0.25-0.25 0.568-0.42 0.914-0.489s0.705-0.034 1.031 0.102c0.326 0.135 0.605 0.364 0.801 0.657s0.301 0.639 0.301 0.992c-0.001 0.473-0.189 0.927-0.524 1.261s-0.788 0.523-1.262 0.524zM28.286 5.079c-0.182 0-0.36 0.054-0.511 0.155s-0.269 0.245-0.339 0.413-0.088 0.353-0.052 0.532c0.035 0.178 0.123 0.342 0.252 0.471s0.293 0.216 0.471 0.252c0.178 0.035 0.363 0.017 0.532-0.052s0.312-0.188 0.413-0.339c0.101-0.151 0.155-0.329 0.155-0.511-0-0.244-0.097-0.478-0.27-0.65s-0.406-0.27-0.65-0.27z"></path>
</symbol>
<symbol id="untitled" viewBox="0 0 32 32">
<path fill="#fff" style="fill: var(--color2, #fff)" d="M18.095 5.664c-1.531-1.58-3.567-2.451-5.732-2.451s-4.201 0.87-5.732 2.451c-3.16 3.262-3.16 8.571 0 11.833 1.531 1.58 3.567 2.451 5.732 2.451s4.201-0.87 5.732-2.451c1.531-1.58 2.374-3.682 2.374-5.917s-0.843-4.336-2.374-5.917zM7.285 6.338c1.357-1.4 3.16-2.172 5.079-2.172s3.722 0.771 5.079 2.172c1.071 1.105 1.761 2.498 2.005 4.010l-2.516 2.54c-0.238-0.139-0.513-0.218-0.806-0.218-0.57 0-1.072 0.3-1.368 0.756l-3.698-1.198c0-0.011 0.001-0.022 0.001-0.033 0-0.936-0.738-1.698-1.645-1.698s-1.645 0.762-1.645 1.698c0 0.306 0.079 0.593 0.217 0.842l-1.94 2.076c-1.472-2.81-1.060-6.402 1.237-8.774zM16.848 14.367c0 0.411-0.324 0.745-0.722 0.745s-0.722-0.334-0.722-0.745c0-0.411 0.324-0.745 0.722-0.745s0.722 0.334 0.722 0.745zM10.138 12.194c0 0.411-0.324 0.745-0.722 0.745s-0.722-0.334-0.722-0.745c0-0.411 0.324-0.745 0.722-0.745s0.722 0.334 0.722 0.745zM17.443 16.824c-1.357 1.4-3.16 2.172-5.079 2.172s-3.722-0.771-5.079-2.172c-0.269-0.278-0.513-0.573-0.73-0.882l2.098-2.245c0.228 0.124 0.488 0.195 0.764 0.195 0.57 0 1.072-0.3 1.368-0.756l3.698 1.198c-0 0.011-0.001 0.022-0.001 0.033 0 0.936 0.738 1.698 1.645 1.698s1.645-0.762 1.645-1.698c0-0.289-0.070-0.56-0.194-0.799l1.969-1.988c-0 1.98-0.747 3.842-2.104 5.243z"></path>
<path fill="#fff" style="fill: var(--color2, #fff)" d="M8.276 6.72l0.606 0.719c1.431-1.284 3.438-1.68 5.238-1.033l0.304-0.9c-2.111-0.759-4.467-0.294-6.147 1.214z"></path>
<path fill="#fff" style="fill: var(--color2, #fff)" d="M15.608 6.083l-0.48 0.814c0.244 0.154 0.479 0.33 0.697 0.523l0.602-0.723c-0.256-0.227-0.532-0.434-0.819-0.615z"></path>
<path fill="#fff" style="fill: var(--color2, #fff)" d="M13.468 16.943c-1.039 0.226-2.106 0.131-3.087-0.275l-0.343 0.885c0.744 0.308 1.53 0.463 2.322 0.463 0.433 0 0.869-0.047 1.299-0.14l-0.19-0.933z"></path>
<path fill="#fff" style="fill: var(--color2, #fff)" d="M23.927 19.236l-0.67 0.692-1.663-1.835c1.968-2.97 2.442-6.685 1.421-10.014l1.319-1.332c0.232 0.129 0.497 0.203 0.779 0.203 0.907 0 1.645-0.762 1.645-1.698 0-0.277-0.065-0.539-0.18-0.771l2.832-2.859v1.478h0.923v-3.087h-2.99v0.953h1.396l-2.795 2.821c-0.244-0.148-0.529-0.234-0.832-0.234-0.907 0-1.645 0.762-1.645 1.698 0 0.3 0.076 0.581 0.208 0.826l-1.011 1.021c-0.544-1.338-1.343-2.591-2.397-3.679-4.359-4.5-11.452-4.5-15.811 0-3.883 4.008-4.307 10.256-1.272 14.753l-0.777 0.832c-0.228-0.124-0.488-0.195-0.764-0.195-0.907-0-1.645 0.762-1.645 1.698s0.738 1.698 1.645 1.698c0.907 0 1.645-0.762 1.645-1.698 0-0.306-0.079-0.593-0.217-0.842l0.679-0.727c0.221 0.275 0.456 0.543 0.706 0.801 2.18 2.25 5.043 3.375 7.906 3.375 2.198 0 4.395-0.664 6.284-1.99l1.667 1.839-0.693 0.715 8.073 8.304 4.306-4.445-8.073-8.304zM25.114 4.508c0.398 0 0.722 0.334 0.722 0.745s-0.324 0.745-0.722 0.745c-0.398 0-0.722-0.334-0.722-0.745s0.324-0.745 0.722-0.745zM1.645 21.254c-0.398 0-0.722-0.334-0.722-0.745s0.324-0.745 0.722-0.745c0.398 0 0.722 0.334 0.722 0.745s-0.324 0.745-0.722 0.745zM5.111 19.068c-3.999-4.128-3.999-10.845 0-14.974 2-2.064 4.626-3.096 7.253-3.096s5.253 1.032 7.253 3.096c3.999 4.128 3.999 10.845 0 14.974s-10.506 4.128-14.506 0zM19.394 20.555c0.302-0.253 0.595-0.524 0.876-0.814 0.271-0.28 0.526-0.571 0.764-0.872l1.571 1.733-1.636 1.689-1.574-1.737zM27.693 30.639l-6.765-6.959 3-3.097 6.765 6.959-3 3.097z"></path>
<path fill="#fff" style="fill: var(--color2, #fff)" d="M23.928 21.966l-1.321 1.364 0.653 0.674 0.668-0.69 2.548 2.63 0.653-0.674-3.201-3.304z"></path>
<path fill="#fff" style="fill: var(--color2, #fff)" d="M27.922 26.084l-0.653 0.677 0.681 0.706 0.653-0.677-0.681-0.706z"></path>
<path fill="#fff" style="fill: var(--color2, #fff)" d="M5.925 23.604h-0.923v1.038h0.923v-1.038z"></path>
<path fill="#fff" style="fill: var(--color2, #fff)" d="M5.925 29.424h-0.923v1.038h0.923v-1.038z"></path>
<path fill="#fff" style="fill: var(--color2, #fff)" d="M13.528 25.607h-0.923v1.038h0.923v-1.038z"></path>
<path fill="#fff" style="fill: var(--color2, #fff)" d="M26.759 17.036h-0.923v1.038h0.923v-1.038z"></path>
<path fill="#fff" style="fill: var(--color2, #fff)" d="M27.806 8.767h-0.923v1.038h0.923v-1.038z"></path>
<path fill="#fff" style="fill: var(--color2, #fff)" d="M30.865 13.145h-0.923v1.038h0.923v-1.038z"></path>
</symbol>
<symbol id="untitled1" viewBox="0 0 32 32">
<path fill="#fff" style="fill: var(--color2, #fff)" d="M31.363 29.186h-27.541l3.476-3.882c0.305 0.162 0.653 0.255 1.022 0.255 0.849 0 1.586-0.488 1.949-1.199l3.551 0.9c0.094 1.125 1.036 2.013 2.181 2.013 1.207 0 2.189-0.986 2.189-2.198 0-0.668-0.299-1.267-0.769-1.671l2.896-6.948 2.062 5.279c-0.493 0.403-0.808 1.017-0.808 1.704 0 1.212 0.982 2.198 2.189 2.198s2.189-0.986 2.189-2.198c0-0.248-0.042-0.486-0.117-0.708l2.53-2.54c0.249-0.25 0.249-0.655 0-0.905s-0.653-0.25-0.901 0l-2.386 2.396c-0.366-0.277-0.821-0.441-1.314-0.441-0.068 0-0.134 0.003-0.201 0.010l-2.536-6.491 2.547-6.112c0.062 0.005 0.125 0.009 0.189 0.009 1.014 0 1.868-0.695 2.116-1.636h4.013c0.352 0 0.637-0.287 0.637-0.64s-0.285-0.64-0.637-0.64h-4.061c-0.297-0.86-1.112-1.48-2.069-1.48-1.207 0-2.189 0.986-2.189 2.198 0 0.691 0.32 1.308 0.818 1.711l-2.033 4.878-2.97-7.603c0.446-0.403 0.727-0.986 0.727-1.635 0-1.212-0.982-2.198-2.189-2.198s-2.189 0.986-2.189 2.198c0 0.524 0.184 1.006 0.49 1.384l-5.255 7.993c-0.228-0.081-0.473-0.125-0.728-0.125-0.262 0-0.512 0.046-0.745 0.131l-4.514-5.963v-6.536c0-0.353-0.285-0.64-0.637-0.64s-0.637 0.287-0.637 0.64v6.293h-1.069c-0.352-0-0.637 0.287-0.637 0.64s0.285 0.64 0.637 0.64h1.069v6.431h-1.069c-0.352 0-0.637 0.287-0.637 0.64s0.285 0.64 0.637 0.64h1.069v6.587h-1.069c-0.352 0-0.637 0.286-0.637 0.64s0.285 0.64 0.637 0.64h1.069v5.981c0 0.353 0.285 0.64 0.637 0.64h5.492v0.84c0 0.353 0.285 0.64 0.637 0.64s0.637-0.287 0.637-0.64v-0.84h6.406v0.84c0 0.353 0.285 0.64 0.637 0.64s0.637-0.287 0.637-0.64v-0.84h6.562v0.84c0 0.353 0.285 0.64 0.637 0.64s0.637-0.287 0.637-0.64v-0.84h6.733c0.352 0 0.637-0.287 0.637-0.64s-0.285-0.64-0.637-0.64zM23.759 22.521c0.504 0 0.914 0.412 0.914 0.918s-0.41 0.918-0.914 0.918-0.914-0.412-0.914-0.918c0-0.506 0.41-0.918 0.914-0.918zM23.759 5.54c0.504 0 0.914 0.412 0.914 0.918s-0.41 0.918-0.914 0.918c-0.504 0-0.914-0.412-0.914-0.918s0.41-0.918 0.914-0.918zM8.319 24.279c-0.504 0-0.914-0.412-0.914-0.918s0.41-0.918 0.914-0.918 0.914 0.412 0.914 0.918c-0 0.506-0.41 0.918-0.914 0.918zM16 25.992c-0.504 0-0.914-0.412-0.914-0.918s0.41-0.918 0.914-0.918c0.504 0 0.914 0.412 0.914 0.918s-0.41 0.918-0.914 0.918zM15.922 2.892c0.504 0 0.914 0.412 0.914 0.918s-0.41 0.918-0.914 0.918c-0.504 0-0.914-0.412-0.914-0.918s0.41-0.918 0.914-0.918zM8.241 14.342c0.504 0 0.914 0.412 0.914 0.918s-0.41 0.918-0.914 0.918-0.914-0.412-0.914-0.918c0-0.506 0.41-0.918 0.914-0.918zM2.982 9.346l3.494 4.616c-0.266 0.364-0.424 0.813-0.424 1.298 0 1.212 0.982 2.198 2.189 2.198s2.189-0.986 2.189-2.198c0-0.491-0.162-0.946-0.434-1.312l5.284-8.037c0.203 0.063 0.419 0.097 0.642 0.097 0.103 0 0.205-0.008 0.304-0.022l3.421 8.758-3.396 8.148c-0.083-0.010-0.166-0.015-0.251-0.015-0.822 0-1.539 0.457-1.913 1.131l-3.596-0.912c-0.131-1.087-1.055-1.933-2.173-1.933-1.207 0-2.189 0.986-2.189 2.198 0 0.376 0.095 0.73 0.261 1.040l-3.409 3.808v-18.863z"></path>
<path fill="#fff" style="fill: var(--color2, #fff)" d="M30.533 17.027c-0.249-0.25-0.653-0.25-0.902 0l-0.504 0.506c-0.249 0.25-0.249 0.655 0 0.905 0.124 0.125 0.288 0.187 0.451 0.187s0.326-0.062 0.451-0.187l0.504-0.506c0.249-0.25 0.249-0.655 0-0.905z"></path>
</symbol>
<symbol id="untitled2" viewBox="0 0 32 32">
<path fill="#fff" style="fill: var(--color2, #fff)" d="M26.534 1.906c-2.44 0-4.367 2.053-4.367 4.612s1.958 4.58 4.367 4.58c2.409 0 4.397-2.053 4.397-4.612s-1.958-4.58-4.397-4.58zM26.534 10.087c-1.897 0-3.433-1.611-3.433-3.601s1.566-3.569 3.433-3.569c1.897 0 3.433 1.611 3.433 3.601s-1.536 3.569-3.433 3.569z"></path>
<path fill="#fff" style="fill: var(--color2, #fff)" d="M27.919 7.213c-0.030-0.095-0.030-0.158-0.090-0.253-0.030-0.063-0.060-0.158-0.12-0.221s-0.090-0.126-0.151-0.19c-0.060-0.063-0.121-0.126-0.211-0.158-0.060-0.063-0.151-0.095-0.211-0.126-0.090-0.032-0.151-0.095-0.241-0.126s-0.181-0.063-0.241-0.095c-0.030 0-0.090-0.032-0.12-0.063s-0.090-0.032-0.121-0.063c-0.030-0.032-0.090-0.032-0.12-0.063s-0.060-0.063-0.090-0.095c-0.030-0.032-0.060-0.063-0.060-0.126-0.030-0.032-0.030-0.095-0.030-0.126 0-0.063 0-0.095 0-0.158 0-0.032 0.030-0.095 0.030-0.126 0.030-0.032 0.030-0.095 0.060-0.126s0.060-0.063 0.090-0.095 0.090-0.063 0.151-0.063c0.060-0.032 0.090-0.032 0.151-0.032 0.030 0 0.060 0 0.090 0s0.060 0 0.090 0 0.090 0 0.151 0.032c0.060 0 0.121 0.032 0.151 0.032s0.090 0.032 0.12 0.032c0.060 0 0.090 0.032 0.12 0.032l0.151 0.063 0.030-0.19 0.060-0.505v-0.126l-0.121-0.032c-0.030 0-0.090-0.032-0.12-0.032s-0.060-0.032-0.12-0.032c-0.030 0-0.090-0.032-0.151-0.032s-0.090-0.032-0.151-0.032h-0.030v-0.6h-0.723v0.632h-0.030c-0.090 0.032-0.181 0.063-0.271 0.126-0.090 0.032-0.151 0.095-0.211 0.158s-0.12 0.126-0.181 0.221c-0.060 0.063-0.090 0.158-0.12 0.253s-0.060 0.19-0.090 0.284-0.030 0.221-0.030 0.316c0 0.095 0 0.158 0.030 0.253s0.030 0.158 0.090 0.253c0.030 0.063 0.090 0.158 0.12 0.221 0.060 0.063 0.090 0.126 0.151 0.19s0.121 0.126 0.211 0.158c0.060 0.063 0.151 0.095 0.211 0.126 0.090 0.032 0.181 0.095 0.241 0.126 0.090 0.032 0.181 0.063 0.241 0.095 0.030 0 0.090 0.032 0.12 0.063s0.090 0.032 0.121 0.063c0.030 0.032 0.060 0.063 0.090 0.063 0.030 0.032 0.060 0.063 0.090 0.095s0.030 0.063 0.060 0.126c0 0.032 0.030 0.095 0.030 0.158s0 0.095 0 0.158c0 0.032-0.030 0.095-0.060 0.126s-0.060 0.063-0.090 0.095c-0.030 0.032-0.060 0.063-0.12 0.095-0.030 0.032-0.090 0.032-0.121 0.063-0.030 0-0.090 0.032-0.151 0.032-0.030 0-0.060 0-0.12 0-0.030 0-0.090 0-0.12 0-0.060 0-0.121 0-0.151 0-0.060 0-0.12-0.032-0.151-0.032-0.060 0-0.121-0.032-0.181-0.063s-0.12-0.032-0.181-0.063c-0.030 0-0.060-0.032-0.090-0.032s-0.060-0.032-0.090-0.032l-0.181-0.095-0.030 0.221-0.060 0.569v0.095l0.090 0.032c0.12-0.032 0.181 0 0.271 0.032 0.060 0.032 0.151 0.063 0.211 0.063 0.060 0.032 0.151 0.032 0.241 0.063s0.151 0.032 0.241 0.032h0.060v0.632h0.723v-0.663h0.030c0.090-0.032 0.181-0.063 0.271-0.126 0.090-0.032 0.151-0.095 0.241-0.158 0.060-0.063 0.12-0.126 0.181-0.221 0.060-0.063 0.090-0.158 0.151-0.253 0.030-0.095 0.060-0.19 0.090-0.284s0.030-0.19 0.030-0.316c0-0.095 0-0.158-0.030-0.253z"></path>
<path fill="#fff" style="fill: var(--color2, #fff)" d="M24.425 11.698c-0.151-0.221-0.482-0.253-0.693-0.095l-4.879 4.075-6.295-2.748c-0.151-0.063-0.331-0.032-0.452 0.063l-6.746 5.054c-0.211 0.158-0.271 0.474-0.12 0.695 0.090 0.158 0.241 0.221 0.392 0.221 0.090 0 0.181-0.032 0.271-0.095l6.535-4.896 6.325 2.748c0.151 0.063 0.361 0.032 0.482-0.063l5.090-4.233c0.211-0.158 0.241-0.505 0.090-0.726z"></path>
<path fill="#fff" style="fill: var(--color2, #fff)" d="M31.473 29.007h-2.229v-14.624c0-0.284-0.211-0.505-0.482-0.505h-4.427c-0.271 0-0.482 0.221-0.482 0.505v14.624h-1.626v-9.571c0-0.284-0.211-0.505-0.482-0.505h-4.457c-0.271 0-0.482 0.221-0.482 0.505v9.571h-1.626v-10.329c0-0.284-0.211-0.505-0.482-0.505h-4.427c-0.271 0-0.482 0.221-0.482 0.505v10.329h-1.626v-7.36c0-0.284-0.211-0.505-0.482-0.505h-4.457c-0.271 0-0.482 0.221-0.482 0.505v7.36h-2.259c-0.271 0-0.482 0.221-0.482 0.505s0.211 0.505 0.482 0.505h30.961c0.271 0 0.482-0.221 0.482-0.505 0.030-0.284-0.181-0.505-0.452-0.505zM7.168 29.007h-3.464v-6.854h3.464v6.854zM14.216 29.007h-3.464v-9.823h3.464v9.823zM21.233 29.007h-3.463v-9.065h3.463v9.065zM28.28 29.007h-3.464v-14.119h3.464v14.119z"></path>
</symbol>
<symbol id="untitled3" viewBox="0 0 32 32">
<path fill="#fff" style="fill: var(--color2, #fff)" d="M19.946 26.292c0.816 0 1.48-0.664 1.48-1.48s-0.664-1.48-1.48-1.48c-0.642 0-1.185 0.414-1.389 0.986h-2.064v-2.959h2.064c0.204 0.573 0.747 0.987 1.389 0.987 0.816 0 1.48-0.664 1.48-1.48s-0.664-1.48-1.48-1.48c-0.642 0-1.185 0.414-1.389 0.986h-2.064v-2.959h2.064c0.204 0.573 0.747 0.987 1.389 0.987 0.816 0 1.48-0.664 1.48-1.48s-0.664-1.48-1.48-1.48c-0.642 0-1.185 0.414-1.389 0.986h-2.064v-0.986h-0.986v-2.064c0.573-0.204 0.986-0.747 0.986-1.389 0-0.816-0.664-1.48-1.48-1.48s-1.48 0.664-1.48 1.48c0 0.642 0.414 1.185 0.987 1.389v2.064h-2.96v-2.064c0.573-0.204 0.987-0.747 0.987-1.389 0-0.816-0.664-1.48-1.48-1.48s-1.48 0.664-1.48 1.48c0 0.642 0.414 1.185 0.987 1.389v2.064h-2.96v-2.064c0.573-0.204 0.986-0.747 0.986-1.389 0-0.816-0.664-1.48-1.48-1.48s-1.48 0.664-1.48 1.48c0 0.642 0.414 1.185 0.987 1.389v2.064h-0.987v0.986h-2.064c-0.204-0.573-0.747-0.986-1.389-0.986-0.816 0-1.48 0.664-1.48 1.48s0.664 1.48 1.48 1.48c0.642 0 1.185-0.414 1.389-0.987h2.064v2.959h-2.064c-0.204-0.573-0.747-0.986-1.389-0.986-0.816 0-1.48 0.664-1.48 1.48s0.664 1.48 1.48 1.48c0.642 0 1.185-0.414 1.389-0.987h2.064v2.959h-2.064c-0.204-0.573-0.747-0.986-1.389-0.986-0.816 0-1.48 0.664-1.48 1.48s0.664 1.48 1.48 1.48c0.642 0 1.185-0.414 1.389-0.987h2.064v0.987h0.987v2.064c-0.573 0.204-0.987 0.747-0.987 1.389 0 0.816 0.664 1.48 1.48 1.48s1.48-0.664 1.48-1.48c0-0.642-0.414-1.185-0.987-1.389v-2.064h2.96v2.064c-0.573 0.204-0.987 0.747-0.987 1.389 0 0.816 0.664 1.48 1.48 1.48s1.48-0.664 1.48-1.48c0-0.642-0.414-1.185-0.987-1.389v-2.064h2.96v2.064c-0.573 0.204-0.987 0.747-0.987 1.389 0 0.816 0.664 1.48 1.48 1.48s1.48-0.664 1.48-1.48c0-0.642-0.414-1.185-0.986-1.389v-2.064h0.986v-0.987h2.064c0.204 0.573 0.747 0.987 1.389 0.987zM19.946 24.319c0.272 0 0.493 0.221 0.493 0.493s-0.221 0.493-0.493 0.493c-0.272 0-0.493-0.221-0.493-0.493s0.221-0.493 0.493-0.493zM19.946 20.373c0.272 0 0.493 0.221 0.493 0.493s-0.221 0.493-0.493 0.493-0.493-0.221-0.493-0.493c0-0.272 0.221-0.493 0.493-0.493zM19.946 16.427c0.272 0 0.493 0.221 0.493 0.493s-0.221 0.493-0.493 0.493-0.493-0.221-0.493-0.493c0-0.272 0.221-0.493 0.493-0.493zM2.189 17.413c-0.272 0-0.493-0.221-0.493-0.493s0.221-0.493 0.493-0.493 0.493 0.221 0.493 0.493c0 0.272-0.221 0.493-0.493 0.493zM2.189 21.359c-0.272 0-0.493-0.221-0.493-0.493s0.221-0.493 0.493-0.493 0.493 0.221 0.493 0.493c0 0.272-0.221 0.493-0.493 0.493zM2.189 25.305c-0.272 0-0.493-0.221-0.493-0.493s0.221-0.493 0.493-0.493c0.272 0 0.493 0.221 0.493 0.493s-0.221 0.493-0.493 0.493zM15.013 11.494c0.272 0 0.493 0.221 0.493 0.493s-0.221 0.493-0.493 0.493-0.493-0.221-0.493-0.493c0-0.272 0.221-0.493 0.493-0.493zM11.067 11.494c0.272 0 0.493 0.221 0.493 0.493s-0.221 0.493-0.493 0.493-0.493-0.221-0.493-0.493c0-0.272 0.221-0.493 0.493-0.493zM7.121 11.494c0.272 0 0.493 0.221 0.493 0.493s-0.221 0.493-0.493 0.493-0.493-0.221-0.493-0.493c0-0.272 0.221-0.493 0.493-0.493zM7.121 30.238c-0.272 0-0.493-0.221-0.493-0.493s0.221-0.493 0.493-0.493 0.493 0.221 0.493 0.493c0 0.272-0.221 0.493-0.493 0.493zM11.067 30.238c-0.272 0-0.493-0.221-0.493-0.493s0.221-0.493 0.493-0.493 0.493 0.221 0.493 0.493c0 0.272-0.221 0.493-0.493 0.493zM15.013 30.238c-0.272 0-0.493-0.221-0.493-0.493s0.221-0.493 0.493-0.493 0.493 0.221 0.493 0.493c0 0.272-0.221 0.493-0.493 0.493zM15.507 25.305h-8.879v-8.879h8.879v8.879z"></path>
<path fill="#fff" style="fill: var(--color2, #fff)" d="M29.069 8.534v0.001c-0.184-0.713-0.467-1.395-0.845-2.034l1.573-1.573-2.79-2.79-1.573 1.573c-0.639-0.379-1.32-0.662-2.034-0.846v-2.222h-3.946v2.222c-0.713 0.184-1.394 0.467-2.034 0.845l-1.573-1.573-2.79 2.79 1.573 1.573c-0.378 0.639-0.661 1.321-0.845 2.034h-1.729v0.987h2.524l0.080-0.395c0.175-0.864 0.514-1.679 1.007-2.424l0.222-0.336-1.439-1.439 1.395-1.395 1.439 1.439 0.336-0.222c0.745-0.493 1.56-0.832 2.424-1.007l0.395-0.080v-2.032h1.973v2.032l0.395 0.080c0.864 0.175 1.68 0.514 2.424 1.007l0.336 0.222 1.439-1.439 1.395 1.395-1.439 1.439 0.222 0.336c0.493 0.745 0.832 1.561 1.007 2.424l0.080 0.395h2.031v1.973h-2.031l-0.080 0.395c-0.175 0.864-0.514 1.679-1.007 2.424l-0.222 0.336 1.439 1.439-1.395 1.395-1.439-1.439-0.336 0.222c-0.745 0.493-1.561 0.833-2.424 1.007l-0.395 0.080v2.524h0.986v-1.729c0.713-0.183 1.394-0.467 2.034-0.845l1.573 1.573 2.79-2.79-1.573-1.573c0.378-0.639 0.661-1.321 0.845-2.034h2.222v-3.946h-2.222z"></path>
<path fill="#fff" style="fill: var(--color2, #fff)" d="M21.426 14.454v0.987c2.72 0 4.933-2.213 4.933-4.933s-2.213-4.933-4.933-4.933c-2.72 0-4.933 2.213-4.933 4.933h0.987c0-2.176 1.77-3.946 3.946-3.946s3.946 1.77 3.946 3.946c0 2.176-1.77 3.946-3.946 3.946z"></path>
<path fill="#fff" style="fill: var(--color2, #fff)" d="M14.52 17.413h-6.906v0.987h6.906v-0.987z"></path>
<path fill="#fff" style="fill: var(--color2, #fff)" d="M14.52 23.332h-0.987v0.986h0.987v-0.986z"></path>
<path fill="#fff" style="fill: var(--color2, #fff)" d="M12.547 23.332h-4.933v0.986h4.933v-0.986z"></path>
<path fill="#fff" style="fill: var(--color2, #fff)" d="M18.861 29.951l0.196 0.967c6.023-1.223 10.704-5.904 11.927-11.927l-0.967-0.196c-1.143 5.634-5.522 10.013-11.156 11.156z"></path>
<path fill="#fff" style="fill: var(--color2, #fff)" d="M13.139 1.916l-0.196-0.967c-6.023 1.223-10.704 5.904-11.927 11.927l0.967 0.196c1.143-5.633 5.522-10.013 11.156-11.156z"></path>
</symbol>
<symbol id="Standard-Collection-13" viewBox="0 0 32 32">
<path fill="#af51c5" style="fill: var(--color7, #af51c5)" d="M25.578 8.829c0.538-0.144 1.014-0.461 1.355-0.903s0.526-0.982 0.528-1.54v-0.007c0-0.67-0.266-1.312-0.74-1.786s-1.116-0.74-1.786-0.74h-0.006c-0.557 0.002-1.098 0.188-1.539 0.528s-0.759 0.816-0.903 1.354c-0.413 1.494-1.304 2.812-2.538 3.751s-2.741 1.448-4.291 1.448c-1.55 0-3.058-0.509-4.291-1.448s-2.125-2.257-2.537-3.751c-0.144-0.538-0.462-1.014-0.903-1.354s-0.982-0.526-1.54-0.528h-0.007c-0.67 0-1.312 0.266-1.786 0.74s-0.74 1.116-0.74 1.786v0.007c0.002 0.557 0.188 1.098 0.528 1.539s0.816 0.759 1.354 0.903c1.494 0.413 2.812 1.304 3.751 2.537s1.448 2.741 1.448 4.291c0 1.55-0.509 3.058-1.448 4.291s-2.257 2.125-3.751 2.537c-0.538 0.144-1.014 0.461-1.354 0.903s-0.526 0.982-0.528 1.539v0.007c0 0.67 0.266 1.312 0.74 1.786s1.116 0.74 1.786 0.74h0.007c0.557-0.002 1.098-0.188 1.539-0.528s0.759-0.816 0.903-1.354c0.413-1.494 1.304-2.812 2.537-3.751s2.741-1.448 4.291-1.448c1.55 0 3.058 0.508 4.291 1.448s2.125 2.257 2.537 3.751c0.144 0.538 0.461 1.014 0.903 1.355s0.982 0.526 1.54 0.528h0.007c0.67 0 1.312-0.266 1.786-0.74s0.74-1.116 0.74-1.786v-0.007c-0.002-0.557-0.188-1.098-0.528-1.539s-0.816-0.758-1.354-0.903c-1.494-0.413-2.812-1.304-3.751-2.538s-1.448-2.741-1.448-4.291c0-1.55 0.509-3.058 1.448-4.291s2.257-2.125 3.751-2.537l-0 0z"></path>
<path fill="#000" style="fill: var(--color4, #000)" d="M25.578 8.829c0.538-0.144 1.014-0.461 1.355-0.903s0.526-0.982 0.528-1.54v-0.007c0-0.67-0.266-1.312-0.74-1.786s-1.116-0.74-1.786-0.74h-0.006c-0.557 0.002-1.098 0.188-1.539 0.528s-0.759 0.816-0.903 1.354c-0.413 1.494-1.304 2.812-2.538 3.751s-2.741 1.448-4.291 1.448c-1.55 0-3.058-0.509-4.291-1.448s-2.125-2.257-2.537-3.751c-0.144-0.538-0.462-1.014-0.903-1.354s-0.982-0.526-1.54-0.528h-0.007c-0.67 0-1.312 0.266-1.786 0.74s-0.74 1.116-0.74 1.786v0.007c0.002 0.557 0.188 1.098 0.528 1.539s0.816 0.759 1.354 0.903c1.494 0.413 2.812 1.304 3.751 2.537s1.448 2.741 1.448 4.291c0 1.55-0.509 3.058-1.448 4.291s-2.257 2.125-3.751 2.537c-0.538 0.144-1.014 0.461-1.354 0.903s-0.526 0.982-0.528 1.539v0.007c0 0.67 0.266 1.312 0.74 1.786s1.116 0.74 1.786 0.74h0.007c0.557-0.002 1.098-0.188 1.539-0.528s0.759-0.816 0.903-1.354c0.413-1.494 1.304-2.812 2.537-3.751s2.741-1.448 4.291-1.448c1.55 0 3.058 0.508 4.291 1.448s2.125 2.257 2.537 3.751c0.144 0.538 0.461 1.014 0.903 1.355s0.982 0.526 1.54 0.528h0.007c0.67 0 1.312-0.266 1.786-0.74s0.74-1.116 0.74-1.786v-0.007c-0.002-0.557-0.188-1.098-0.528-1.539s-0.816-0.758-1.354-0.903c-1.494-0.413-2.812-1.304-3.751-2.538s-1.448-2.741-1.448-4.291c0-1.55 0.509-3.058 1.448-4.291s2.257-2.125 3.751-2.537l-0 0z"></path>
<path fill="#af51c5" style="fill: var(--color7, #af51c5)" d="M3.304 1.496c0.081 0.081 0.186 0.134 0.299 0.153s0.229 0.002 0.332-0.049c0.939-0.454 1.996-0.605 3.025-0.432s1.979 0.659 2.719 1.394c0.102 0.103 0.24 0.162 0.385 0.165s0.285-0.050 0.392-0.148c0.053-0.051 0.095-0.111 0.125-0.178s0.045-0.139 0.046-0.213c0.001-0.073-0.013-0.146-0.041-0.214s-0.069-0.129-0.12-0.181c-0.903-0.9-2.063-1.498-3.32-1.709s-2.549-0.026-3.696 0.531c-0.078 0.039-0.146 0.096-0.198 0.166s-0.086 0.152-0.1 0.238c-0.014 0.086-0.007 0.174 0.020 0.257s0.073 0.158 0.135 0.22z"></path>
<path fill="#000" style="fill: var(--color4, #000)" d="M3.304 1.496c0.081 0.081 0.186 0.134 0.299 0.153s0.229 0.002 0.332-0.049c0.939-0.454 1.996-0.605 3.025-0.432s1.979 0.659 2.719 1.394c0.102 0.103 0.24 0.162 0.385 0.165s0.285-0.050 0.392-0.148c0.053-0.051 0.095-0.111 0.125-0.178s0.045-0.139 0.046-0.213c0.001-0.073-0.013-0.146-0.041-0.214s-0.069-0.129-0.12-0.181c-0.903-0.9-2.063-1.498-3.32-1.709s-2.549-0.026-3.696 0.531c-0.078 0.039-0.146 0.096-0.198 0.166s-0.086 0.152-0.1 0.238c-0.014 0.086-0.007 0.174 0.020 0.257s0.073 0.158 0.135 0.22z"></path>
<path fill="#af51c5" style="fill: var(--color7, #af51c5)" d="M0.618 3.443c-0.556 1.144-0.743 2.431-0.535 3.686s0.799 2.413 1.693 3.317c0.094 0.099 0.221 0.16 0.356 0.173s0.272-0.024 0.382-0.104c0.063-0.047 0.115-0.108 0.152-0.177s0.060-0.145 0.065-0.224-0.006-0.157-0.034-0.231c-0.028-0.074-0.071-0.14-0.126-0.196-0.739-0.74-1.229-1.692-1.402-2.723s-0.022-2.091 0.433-3.032c0.051-0.103 0.068-0.219 0.049-0.333s-0.072-0.218-0.153-0.3c-0.062-0.062-0.137-0.108-0.22-0.135s-0.171-0.034-0.257-0.020c-0.086 0.014-0.168 0.048-0.238 0.1s-0.127 0.12-0.166 0.198z"></path>
<path fill="#000" style="fill: var(--color4, #000)" d="M0.618 3.443c-0.556 1.144-0.743 2.431-0.535 3.686s0.799 2.413 1.693 3.317c0.094 0.099 0.221 0.16 0.356 0.173s0.272-0.024 0.382-0.104c0.063-0.047 0.115-0.108 0.152-0.177s0.060-0.145 0.065-0.224-0.006-0.157-0.034-0.231c-0.028-0.074-0.071-0.14-0.126-0.196-0.739-0.74-1.229-1.692-1.402-2.723s-0.022-2.091 0.433-3.032c0.051-0.103 0.068-0.219 0.049-0.333s-0.072-0.218-0.153-0.3c-0.062-0.062-0.137-0.108-0.22-0.135s-0.171-0.034-0.257-0.020c-0.086 0.014-0.168 0.048-0.238 0.1s-0.127 0.12-0.166 0.198z"></path>
<path fill="#af51c5" style="fill: var(--color7, #af51c5)" d="M27.38 29.715c-0.94 0.454-1.997 0.605-3.026 0.432s-1.979-0.66-2.719-1.395c-0.102-0.102-0.239-0.161-0.384-0.165s-0.284 0.049-0.391 0.147c-0.053 0.050-0.096 0.111-0.125 0.178s-0.045 0.14-0.046 0.213c-0.001 0.073 0.013 0.146 0.040 0.214s0.069 0.13 0.12 0.182c0.903 0.9 2.063 1.497 3.32 1.709s2.549 0.026 3.696-0.531c0.078-0.039 0.146-0.096 0.198-0.166s0.086-0.152 0.1-0.238c0.014-0.086 0.007-0.174-0.020-0.257s-0.073-0.158-0.135-0.22c-0.081-0.081-0.186-0.134-0.299-0.153s-0.229-0.002-0.332 0.048z"></path>
<path fill="#000" style="fill: var(--color4, #000)" d="M27.38 29.715c-0.94 0.454-1.997 0.605-3.026 0.432s-1.979-0.66-2.719-1.395c-0.102-0.102-0.239-0.161-0.384-0.165s-0.284 0.049-0.391 0.147c-0.053 0.050-0.096 0.111-0.125 0.178s-0.045 0.14-0.046 0.213c-0.001 0.073 0.013 0.146 0.040 0.214s0.069 0.13 0.12 0.182c0.903 0.9 2.063 1.497 3.32 1.709s2.549 0.026 3.696-0.531c0.078-0.039 0.146-0.096 0.198-0.166s0.086-0.152 0.1-0.238c0.014-0.086 0.007-0.174-0.020-0.257s-0.073-0.158-0.135-0.22c-0.081-0.081-0.186-0.134-0.299-0.153s-0.229-0.002-0.332 0.048z"></path>
<path fill="#af51c5" style="fill: var(--color7, #af51c5)" d="M28.734 20.861c-0.098 0.106-0.15 0.246-0.147 0.391s0.062 0.282 0.165 0.384c0.736 0.741 1.223 1.692 1.395 2.721s0.020 2.087-0.435 3.027c-0.050 0.103-0.067 0.219-0.049 0.332s0.072 0.218 0.153 0.299c0.061 0.062 0.137 0.108 0.22 0.135s0.171 0.034 0.257 0.020c0.086-0.014 0.168-0.048 0.238-0.1s0.127-0.119 0.166-0.197c0.558-1.148 0.745-2.44 0.534-3.699s-0.808-2.42-1.709-3.324c-0.052-0.052-0.114-0.093-0.182-0.121s-0.141-0.041-0.214-0.041c-0.074 0.001-0.146 0.017-0.213 0.046s-0.128 0.072-0.178 0.125z"></path>
<path fill="#000" style="fill: var(--color4, #000)" d="M28.734 20.861c-0.098 0.106-0.15 0.246-0.147 0.391s0.062 0.282 0.165 0.384c0.736 0.741 1.223 1.692 1.395 2.721s0.020 2.087-0.435 3.027c-0.050 0.103-0.067 0.219-0.049 0.332s0.072 0.218 0.153 0.299c0.061 0.062 0.137 0.108 0.22 0.135s0.171 0.034 0.257 0.020c0.086-0.014 0.168-0.048 0.238-0.1s0.127-0.119 0.166-0.197c0.558-1.148 0.745-2.44 0.534-3.699s-0.808-2.42-1.709-3.324c-0.052-0.052-0.114-0.093-0.182-0.121s-0.141-0.041-0.214-0.041c-0.074 0.001-0.146 0.017-0.213 0.046s-0.128 0.072-0.178 0.125z"></path>
<path fill="#af51c5" style="fill: var(--color7, #af51c5)" d="M29.714 3.933c0.454 0.94 0.606 1.997 0.434 3.027s-0.66 1.98-1.395 2.72c-0.102 0.102-0.161 0.239-0.165 0.383s0.049 0.284 0.147 0.391c0.050 0.053 0.111 0.096 0.178 0.125s0.14 0.045 0.213 0.046 0.146-0.013 0.214-0.040c0.068-0.028 0.13-0.069 0.182-0.12 0.901-0.903 1.498-2.064 1.709-3.322s0.025-2.55-0.532-3.698c-0.039-0.078-0.096-0.146-0.166-0.197s-0.152-0.086-0.238-0.1-0.174-0.007-0.257 0.020c-0.083 0.027-0.158 0.073-0.22 0.135-0.081 0.081-0.134 0.186-0.153 0.299s-0.002 0.229 0.049 0.332z"></path>
<path fill="#000" style="fill: var(--color4, #000)" d="M29.714 3.933c0.454 0.94 0.606 1.997 0.434 3.027s-0.66 1.98-1.395 2.72c-0.102 0.102-0.161 0.239-0.165 0.383s0.049 0.284 0.147 0.391c0.050 0.053 0.111 0.096 0.178 0.125s0.14 0.045 0.213 0.046 0.146-0.013 0.214-0.040c0.068-0.028 0.13-0.069 0.182-0.12 0.901-0.903 1.498-2.064 1.709-3.322s0.025-2.55-0.532-3.698c-0.039-0.078-0.096-0.146-0.166-0.197s-0.152-0.086-0.238-0.1-0.174-0.007-0.257 0.020c-0.083 0.027-0.158 0.073-0.22 0.135-0.081 0.081-0.134 0.186-0.153 0.299s-0.002 0.229 0.049 0.332z"></path>
<path fill="#af51c5" style="fill: var(--color7, #af51c5)" d="M21.635 2.563c0.74-0.736 1.691-1.223 2.72-1.396s2.087-0.021 3.027 0.433c0.103 0.050 0.219 0.068 0.332 0.049s0.218-0.072 0.299-0.153c0.062-0.061 0.108-0.137 0.135-0.22s0.034-0.171 0.020-0.257-0.048-0.168-0.1-0.238c-0.052-0.070-0.119-0.127-0.198-0.166-1.148-0.557-2.44-0.743-3.698-0.532s-2.419 0.808-3.322 1.709c-0.052 0.052-0.093 0.114-0.12 0.182s-0.041 0.141-0.040 0.214c0.001 0.073 0.017 0.146 0.046 0.213s0.072 0.128 0.125 0.178c0.106 0.098 0.246 0.15 0.391 0.147s0.282-0.062 0.384-0.165z"></path>
<path fill="#000" style="fill: var(--color4, #000)" d="M21.635 2.563c0.74-0.736 1.691-1.223 2.72-1.396s2.087-0.021 3.027 0.433c0.103 0.050 0.219 0.068 0.332 0.049s0.218-0.072 0.299-0.153c0.062-0.061 0.108-0.137 0.135-0.22s0.034-0.171 0.020-0.257-0.048-0.168-0.1-0.238c-0.052-0.070-0.119-0.127-0.198-0.166-1.148-0.557-2.44-0.743-3.698-0.532s-2.419 0.808-3.322 1.709c-0.052 0.052-0.093 0.114-0.12 0.182s-0.041 0.141-0.040 0.214c0.001 0.073 0.017 0.146 0.046 0.213s0.072 0.128 0.125 0.178c0.106 0.098 0.246 0.15 0.391 0.147s0.282-0.062 0.384-0.165z"></path>
<path fill="#af51c5" style="fill: var(--color7, #af51c5)" d="M9.68 28.752c-0.74 0.735-1.691 1.223-2.72 1.395s-2.087 0.021-3.027-0.434c-0.103-0.050-0.219-0.067-0.332-0.049s-0.218 0.072-0.299 0.153c-0.062 0.061-0.108 0.137-0.135 0.22s-0.034 0.171-0.020 0.257 0.048 0.168 0.1 0.238c0.052 0.070 0.119 0.127 0.197 0.166 1.147 0.557 2.44 0.743 3.698 0.532s2.419-0.808 3.322-1.709c0.052-0.052 0.093-0.114 0.12-0.182s0.041-0.141 0.040-0.214-0.017-0.146-0.046-0.213c-0.029-0.067-0.072-0.128-0.125-0.178-0.106-0.098-0.246-0.15-0.391-0.147s-0.282 0.062-0.383 0.165z"></path>
<path fill="#000" style="fill: var(--color4, #000)" d="M9.68 28.752c-0.74 0.735-1.691 1.223-2.72 1.395s-2.087 0.021-3.027-0.434c-0.103-0.050-0.219-0.067-0.332-0.049s-0.218 0.072-0.299 0.153c-0.062 0.061-0.108 0.137-0.135 0.22s-0.034 0.171-0.020 0.257 0.048 0.168 0.1 0.238c0.052 0.070 0.119 0.127 0.197 0.166 1.147 0.557 2.44 0.743 3.698 0.532s2.419-0.808 3.322-1.709c0.052-0.052 0.093-0.114 0.12-0.182s0.041-0.141 0.040-0.214-0.017-0.146-0.046-0.213c-0.029-0.067-0.072-0.128-0.125-0.178-0.106-0.098-0.246-0.15-0.391-0.147s-0.282 0.062-0.383 0.165z"></path>
<path fill="#af51c5" style="fill: var(--color7, #af51c5)" d="M1.601 27.382c-0.454-0.94-0.606-1.997-0.434-3.027s0.66-1.98 1.396-2.72c0.102-0.102 0.161-0.239 0.165-0.384s-0.049-0.284-0.147-0.391c-0.050-0.053-0.111-0.096-0.178-0.125s-0.14-0.045-0.213-0.046c-0.073-0.001-0.146 0.013-0.214 0.041s-0.13 0.069-0.182 0.12c-0.901 0.903-1.498 2.064-1.709 3.322s-0.025 2.55 0.532 3.698c0.039 0.078 0.096 0.146 0.166 0.198s0.152 0.086 0.238 0.1c0.086 0.014 0.174 0.007 0.257-0.020s0.158-0.073 0.22-0.135c0.081-0.081 0.134-0.186 0.153-0.299s0.002-0.229-0.049-0.332z"></path>
<path fill="#000" style="fill: var(--color4, #000)" d="M1.601 27.382c-0.454-0.94-0.606-1.997-0.434-3.027s0.66-1.98 1.396-2.72c0.102-0.102 0.161-0.239 0.165-0.384s-0.049-0.284-0.147-0.391c-0.050-0.053-0.111-0.096-0.178-0.125s-0.14-0.045-0.213-0.046c-0.073-0.001-0.146 0.013-0.214 0.041s-0.13 0.069-0.182 0.12c-0.901 0.903-1.498 2.064-1.709 3.322s-0.025 2.55 0.532 3.698c0.039 0.078 0.096 0.146 0.166 0.198s0.152 0.086 0.238 0.1c0.086 0.014 0.174 0.007 0.257-0.020s0.158-0.073 0.22-0.135c0.081-0.081 0.134-0.186 0.153-0.299s0.002-0.229-0.049-0.332z"></path>
</symbol>
</defs>
</svg>
